<svg width="118" height="40" viewBox="0 0 118 40" fill="none" xmlns="http://www.w3.org/2000/svg">
<rect x="0.5" y="0.5" width="117" height="39" rx="19.5" stroke="white"/>
<path d="M21.1186 25V14.8182H22.6548V23.6776H27.2685V25H21.1186ZM28.9016 25V17.3636H30.3881V25H28.9016ZM29.6523 16.1854C29.3938 16.1854 29.1718 16.0992 28.9862 15.9268C28.8039 15.7512 28.7127 15.5424 28.7127 15.3004C28.7127 15.0552 28.8039 14.8464 28.9862 14.674C29.1718 14.4983 29.3938 14.4105 29.6523 14.4105C29.9109 14.4105 30.1313 14.4983 30.3136 14.674C30.4992 14.8464 30.592 15.0552 30.592 15.3004C30.592 15.5424 30.4992 15.7512 30.3136 15.9268C30.1313 16.0992 29.9109 16.1854 29.6523 16.1854ZM38.9206 17.3636L36.1515 25H34.5605L31.7864 17.3636H33.3823L35.3162 23.2401H35.3958L37.3248 17.3636H38.9206ZM40.3176 25V17.3636H41.8042V25H40.3176ZM41.0684 16.1854C40.8098 16.1854 40.5878 16.0992 40.4022 15.9268C40.2199 15.7512 40.1287 15.5424 40.1287 15.3004C40.1287 15.0552 40.2199 14.8464 40.4022 14.674C40.5878 14.4983 40.8098 14.4105 41.0684 14.4105C41.3269 14.4105 41.5473 14.4983 41.7296 14.674C41.9152 14.8464 42.008 15.0552 42.008 15.3004C42.008 15.5424 41.9152 15.7512 41.7296 15.9268C41.5473 16.0992 41.3269 16.1854 41.0684 16.1854ZM45.2905 20.4659V25H43.804V17.3636H45.2308V18.6065H45.3253C45.5009 18.2022 45.776 17.8774 46.1506 17.6321C46.5284 17.3868 47.004 17.2642 47.5774 17.2642C48.0978 17.2642 48.5535 17.3736 48.9446 17.5923C49.3357 17.8078 49.639 18.1293 49.8544 18.5568C50.0698 18.9844 50.1776 19.513 50.1776 20.1428V25H48.6911V20.3217C48.6911 19.7682 48.5469 19.3357 48.2585 19.0241C47.9702 18.7093 47.5741 18.5518 47.0703 18.5518C46.7256 18.5518 46.419 18.6264 46.1506 18.7756C45.8854 18.9247 45.675 19.1435 45.5192 19.4318C45.3667 19.7169 45.2905 20.0616 45.2905 20.4659ZM55.3729 28.0227C54.7663 28.0227 54.2443 27.9432 53.8068 27.7841C53.3726 27.625 53.018 27.4145 52.7429 27.1527C52.4678 26.8909 52.2623 26.6042 52.1264 26.2926L53.4041 25.7656C53.4936 25.9115 53.6129 26.0656 53.7621 26.228C53.9145 26.3937 54.12 26.5346 54.3786 26.6506C54.6404 26.7666 54.9768 26.8246 55.3878 26.8246C55.9512 26.8246 56.4169 26.687 56.7848 26.4119C57.1527 26.1402 57.3366 25.706 57.3366 25.1094V23.608H57.2422C57.1527 23.7704 57.0234 23.951 56.8544 24.1499C56.6887 24.3487 56.46 24.5211 56.1683 24.6669C55.8767 24.8127 55.4972 24.8857 55.0298 24.8857C54.4266 24.8857 53.883 24.7448 53.3991 24.4631C52.9186 24.178 52.5374 23.7588 52.2557 23.2053C51.9773 22.6484 51.8381 21.964 51.8381 21.152C51.8381 20.34 51.9756 19.6439 52.2507 19.0639C52.5291 18.4839 52.9103 18.0398 53.3942 17.7315C53.8781 17.42 54.4266 17.2642 55.0398 17.2642C55.5137 17.2642 55.8965 17.3438 56.1882 17.5028C56.4799 17.6586 56.7069 17.8409 56.8693 18.0497C57.035 18.2585 57.1626 18.4425 57.2521 18.6016H57.3615V17.3636H58.8182V25.169C58.8182 25.8253 58.6657 26.3639 58.3608 26.7848C58.0559 27.2057 57.6432 27.5173 57.1229 27.7195C56.6058 27.9216 56.0225 28.0227 55.3729 28.0227ZM55.358 23.6527C55.7855 23.6527 56.1468 23.5533 56.4418 23.3544C56.7401 23.1522 56.9654 22.8639 57.1179 22.4893C57.2737 22.1115 57.3516 21.6591 57.3516 21.1321C57.3516 20.6184 57.2753 20.166 57.1229 19.7749C56.9704 19.3838 56.7467 19.0788 56.4517 18.8601C56.1567 18.638 55.7921 18.527 55.358 18.527C54.9105 18.527 54.5376 18.643 54.2393 18.875C53.9411 19.1037 53.7157 19.4152 53.5632 19.8097C53.4141 20.2041 53.3395 20.6449 53.3395 21.1321C53.3395 21.6326 53.4157 22.0717 53.5682 22.4496C53.7206 22.8274 53.946 23.1224 54.2443 23.3345C54.5459 23.5466 54.9171 23.6527 55.358 23.6527ZM64.5169 25V17.3636H65.9537V18.5767H66.0332C66.1724 18.1657 66.4177 17.8426 66.769 17.6072C67.1236 17.3686 67.5247 17.2493 67.9721 17.2493C68.0649 17.2493 68.1743 17.2526 68.3002 17.2592C68.4295 17.2659 68.5306 17.2741 68.6035 17.2841V18.706C68.5439 18.6894 68.4378 18.6712 68.2853 18.6513C68.1329 18.6281 67.9804 18.6165 67.8279 18.6165C67.4766 18.6165 67.1634 18.6911 66.8883 18.8402C66.6165 18.986 66.4011 19.1899 66.242 19.4517C66.0829 19.7102 66.0034 20.0052 66.0034 20.3366V25H64.5169ZM72.8331 25.1541C72.1172 25.1541 71.4924 24.9901 70.9588 24.6619C70.4252 24.3338 70.0109 23.8748 69.7159 23.2848C69.4209 22.6948 69.2734 22.0054 69.2734 21.2166C69.2734 20.4245 69.4209 19.7318 69.7159 19.1385C70.0109 18.5452 70.4252 18.0845 70.9588 17.7564C71.4924 17.4283 72.1172 17.2642 72.8331 17.2642C73.549 17.2642 74.1738 17.4283 74.7074 17.7564C75.241 18.0845 75.6553 18.5452 75.9503 19.1385C76.2453 19.7318 76.3928 20.4245 76.3928 21.2166C76.3928 22.0054 76.2453 22.6948 75.9503 23.2848C75.6553 23.8748 75.241 24.3338 74.7074 24.6619C74.1738 24.9901 73.549 25.1541 72.8331 25.1541ZM72.8381 23.9062C73.3021 23.9062 73.6866 23.7836 73.9915 23.5384C74.2964 23.2931 74.5218 22.9666 74.6676 22.5589C74.8168 22.1513 74.8913 21.7022 74.8913 21.2116C74.8913 20.7244 74.8168 20.277 74.6676 19.8693C74.5218 19.4583 74.2964 19.1286 73.9915 18.88C73.6866 18.6314 73.3021 18.5071 72.8381 18.5071C72.3707 18.5071 71.983 18.6314 71.6747 18.88C71.3698 19.1286 71.1428 19.4583 70.9936 19.8693C70.8478 20.277 70.7749 20.7244 70.7749 21.2116C70.7749 21.7022 70.8478 22.1513 70.9936 22.5589C71.1428 22.9666 71.3698 23.2931 71.6747 23.5384C71.983 23.7836 72.3707 23.9062 72.8381 23.9062ZM81.2686 25.1541C80.5527 25.1541 79.928 24.9901 79.3944 24.6619C78.8607 24.3338 78.4464 23.8748 78.1515 23.2848C77.8565 22.6948 77.709 22.0054 77.709 21.2166C77.709 20.4245 77.8565 19.7318 78.1515 19.1385C78.4464 18.5452 78.8607 18.0845 79.3944 17.7564C79.928 17.4283 80.5527 17.2642 81.2686 17.2642C81.9846 17.2642 82.6093 17.4283 83.1429 17.7564C83.6766 18.0845 84.0908 18.5452 84.3858 19.1385C84.6808 19.7318 84.8283 20.4245 84.8283 21.2166C84.8283 22.0054 84.6808 22.6948 84.3858 23.2848C84.0908 23.8748 83.6766 24.3338 83.1429 24.6619C82.6093 24.9901 81.9846 25.1541 81.2686 25.1541ZM81.2736 23.9062C81.7376 23.9062 82.1221 23.7836 82.427 23.5384C82.7319 23.2931 82.9573 22.9666 83.1032 22.5589C83.2523 22.1513 83.3269 21.7022 83.3269 21.2116C83.3269 20.7244 83.2523 20.277 83.1032 19.8693C82.9573 19.4583 82.7319 19.1286 82.427 18.88C82.1221 18.6314 81.7376 18.5071 81.2736 18.5071C80.8063 18.5071 80.4185 18.6314 80.1103 18.88C79.8053 19.1286 79.5783 19.4583 79.4292 19.8693C79.2833 20.277 79.2104 20.7244 79.2104 21.2116C79.2104 21.7022 79.2833 22.1513 79.4292 22.5589C79.5783 22.9666 79.8053 23.2931 80.1103 23.5384C80.4185 23.7836 80.8063 23.9062 81.2736 23.9062ZM86.4876 25V17.3636H87.9144V18.6065H88.0089C88.168 18.1856 88.4281 17.8575 88.7894 17.6222C89.1507 17.3835 89.5832 17.2642 90.087 17.2642C90.5974 17.2642 91.025 17.3835 91.3697 17.6222C91.7177 17.8608 91.9746 18.1889 92.1403 18.6065H92.2198C92.4021 18.1989 92.6921 17.8741 93.0898 17.6321C93.4876 17.3868 93.9615 17.2642 94.5117 17.2642C95.2044 17.2642 95.7695 17.4813 96.207 17.9155C96.6478 18.3497 96.8683 19.0043 96.8683 19.8793V25H95.3817V20.0185C95.3817 19.5014 95.2409 19.1269 94.9592 18.8949C94.6774 18.6629 94.341 18.5469 93.9499 18.5469C93.466 18.5469 93.0898 18.696 92.8214 18.9943C92.5529 19.2893 92.4187 19.6688 92.4187 20.1328V25H90.9371V19.924C90.9371 19.5097 90.8079 19.1766 90.5494 18.9247C90.2908 18.6728 89.9544 18.5469 89.5401 18.5469C89.2584 18.5469 88.9982 18.6214 88.7596 18.7706C88.5243 18.9164 88.3337 19.1203 88.1879 19.3821C88.0453 19.6439 87.9741 19.9472 87.9741 20.2919V25H86.4876Z" fill="white"/>
</svg>
