<svg width="40" height="40" viewBox="0 0 40 40" fill="none" xmlns="http://www.w3.org/2000/svg">
<rect width="40" height="40" rx="20" fill="#333D4C"/>
<path fill-rule="evenodd" clip-rule="evenodd" d="M21.8907 13.657C22.4064 13.4433 22.9592 13.3333 23.5175 13.3333C24.0758 13.3333 24.6286 13.4433 25.1444 13.657C25.6601 13.8707 26.1288 14.184 26.5234 14.5788C26.9182 14.9734 27.2314 15.442 27.445 15.9577C27.6587 16.4734 27.7687 17.0262 27.7687 17.5845C27.7687 18.1428 27.6587 18.6956 27.445 19.2114C27.2313 19.7271 26.9181 20.1957 26.5233 20.5903C26.5233 20.5904 26.5234 20.5903 26.5233 20.5903L20.63 26.4837C20.4022 26.7115 20.0328 26.7115 19.805 26.4837L13.9117 20.5903C13.1145 19.7932 12.6667 18.7119 12.6667 17.5845C12.6667 16.4571 13.1145 15.3759 13.9117 14.5787C14.7089 13.7815 15.7901 13.3337 16.9175 13.3337C18.0449 13.3337 19.1261 13.7815 19.9233 14.5787L20.2175 14.8729L20.5116 14.5788C20.9063 14.184 21.3749 13.8707 21.8907 13.657ZM25.6983 15.4036C25.4119 15.1171 25.072 14.8899 24.6978 14.7348C24.3236 14.5798 23.9225 14.5 23.5175 14.5C23.1125 14.5 22.7114 14.5798 22.3372 14.7348C21.9631 14.8899 21.6231 15.1171 21.3368 15.4036L20.63 16.1103C20.4022 16.3381 20.0328 16.3381 19.805 16.1103L19.0984 15.4037C18.52 14.8253 17.7355 14.5003 16.9175 14.5003C16.0995 14.5003 15.3151 14.8253 14.7367 15.4037C14.1583 15.9821 13.8333 16.7666 13.8333 17.5845C13.8333 18.4025 14.1583 19.187 14.7367 19.7654L20.2175 25.2462L25.6984 19.7654C25.9848 19.4791 26.2122 19.139 26.3672 18.7648C26.5223 18.3906 26.6021 17.9896 26.6021 17.5845C26.6021 17.1795 26.5223 16.7784 26.3672 16.4043C26.2122 16.0301 25.9847 15.6899 25.6983 15.4036Z" fill="#E0E5EB"/>
</svg>
